<svg
  width="201"
  height="200"
  viewBox="0 0 201 200"
  fill="none"
  xmlns="http://www.w3.org/2000/svg"
>
  <path
    d="M200.5 100C200.5 155.228 155.728 200 100.5 200C45.2715 200 0.5 155.228 0.5 100C0.5 44.7715 45.2715 0 100.5 0C155.728 0 200.5 44.7715 200.5 100Z"
    fill="#D1FAEC"
  />
  <path
    d="M138.687 77.1532C141.703 74.1611 141.722 69.2907 138.73 66.2747C137.23 64.7627 135.258 64.0039 133.284 64L147.885 64C149.864 64.0001 151.842 64.7589 153.346 66.2747C156.338 69.2907 156.318 74.1612 153.302 77.1532L95.1488 134.846C93.6493 136.333 91.6902 137.077 89.7312 137.077L74.4233 137.077L74.4051 137.044C76.5937 137.246 78.8523 136.513 80.5333 134.845L138.687 77.1532Z"
    fill="#33CC99"
  />
  <path
    d="M49.7983 96.977C49.9225 96.9706 50.0468 96.9673 50.1711 96.9669H49.8082C49.8049 96.9703 49.8016 96.9736 49.7983 96.977Z"
    fill="#33CC99"
  />
  <path
    d="M50.2142 96.9669C52.1654 96.9724 54.1154 97.7156 55.6101 99.1983L75.1157 118.549L82.4234 111.299L70.2255 99.1983C68.7253 97.7101 66.7664 96.9669 64.8079 96.9669H50.2142Z"
    fill="#33CC99"
  />
  <path
    d="M133.254 64L132.5 64L132.468 64.0416C132.729 64.0144 132.992 64.0005 133.254 64Z"
    fill="#33CC99"
  />
  <path
    d="M138.73 66.2747C141.722 69.2907 141.703 74.1612 138.687 77.1532L80.5332 134.846C77.5342 137.821 72.697 137.821 69.698 134.846L44.7747 110.12C41.7588 107.128 41.7394 102.258 44.7314 99.2417C47.7234 96.2257 52.5939 96.2063 55.6099 99.1983L75.1156 118.549L127.852 66.2314C130.868 63.2394 135.738 63.2588 138.73 66.2747Z"
    fill="white"
  />
  <path
    d="M50.2141 96.967C52.1652 96.9724 54.1153 97.7156 55.6099 99.1983L75.1156 118.549L82.4232 111.299M50.2141 96.967C48.228 96.9614 46.2407 97.7203 44.7314 99.2417C41.7394 102.258 41.7588 107.128 44.7747 110.12L69.698 134.846C71.186 136.322 73.1264 137.065 75.0703 137.077M50.2141 96.967C53.9626 96.967 62.9017 96.967 64.8078 96.967C66.7662 96.9669 68.7252 97.7101 70.2253 99.1984L82.4232 111.299M50.2141 96.967C50.0709 96.967 50.3414 96.967 50.2141 96.967ZM82.4232 111.299L127.852 66.2314C129.348 64.7469 131.301 64.0037 133.254 64M75.0703 137.077C77.0444 137.088 79.0221 136.345 80.5332 134.846L138.687 77.1532C141.703 74.1612 141.722 69.2907 138.73 66.2747C137.223 64.7551 135.238 63.9962 133.254 64M75.0703 137.077C79.8109 137.077 87.8602 137.077 89.731 137.077C91.6901 137.077 93.6491 136.333 95.1486 134.846L153.302 77.1532C156.318 74.1612 156.338 69.2907 153.346 66.2748C151.842 64.759 149.864 64.0001 147.885 64C146.006 64 139.235 64 133.254 64"
    stroke="#124937"
    stroke-width="2"
    stroke-linecap="round"
    stroke-linejoin="round"
  />
</svg>